HIERARCHY
ROOT Hips
{
  OFFSET 38.1282 98.88 3.35729
  CHANNELS 6 Xposition Yposition Zposition Zrotation Xrotation Yrotation
  JOINT spine
  {
    OFFSET 0 8.30104 0.477351
    CHANNELS 3 Zrotation Xrotation Yrotation
    JOINT spine1
    {
      OFFSET 0 10.4565 0
      CHANNELS 3 Zrotation Xrotation Yrotation
      JOINT spine2
      {
        OFFSET 0 10.0192 0
        CHANNELS 3 Zrotation Xrotation Yrotation
        JOINT Neck
        {
          OFFSET 0 25.7235 1.22641
          CHANNELS 3 Zrotation Xrotation Yrotation
          JOINT Head
          {
            OFFSET 0 7.77175 0
            CHANNELS 3 Zrotation Xrotation Yrotation
            End Site
            {
              OFFSET 0 18.812 -6.20394
            }
          }
        }
        JOINT RightShoulder
        {
          OFFSET -4.2188 10.82 -0.587439
          CHANNELS 3 Zrotation Xrotation Yrotation
          JOINT RightArm
          {
            OFFSET 0 14.1914 0
            CHANNELS 3 Zrotation Xrotation Yrotation
            JOINT RightArmRoll
            {
              OFFSET 0 7.16408 0
              CHANNELS 3 Zrotation Xrotation Yrotation
              JOINT RightForeArm
              {
                OFFSET 0 20.8665 0
                CHANNELS 3 Zrotation Xrotation Yrotation
                JOINT RightForeArmRoll
                {
                  OFFSET 0 8.03921 0
                  CHANNELS 3 Zrotation Xrotation Yrotation
                  JOINT RightHand
                  {
                    OFFSET 0 16.133 0
                    CHANNELS 3 Zrotation Xrotation Yrotation
                    End Site
                    {
                      OFFSET 0 0 0
                    }
                  }
                }
              }
            }
          }
        }
        JOINT LeftShoulder
        {
          OFFSET 4.2188 10.82 -0.587439
          CHANNELS 3 Zrotation Xrotation Yrotation
          JOINT LeftArm
          {
            OFFSET 0 14.1914 0
            CHANNELS 3 Zrotation Xrotation Yrotation
            JOINT LeftArmRoll
            {
              OFFSET 0 7.16408 0
              CHANNELS 3 Zrotation Xrotation Yrotation
              JOINT LeftForeArm
              {
                OFFSET 0 20.8665 0
                CHANNELS 3 Zrotation Xrotation Yrotation
                JOINT LeftForeArmRoll
                {
                  OFFSET 0 8.03921 0
                  CHANNELS 3 Zrotation Xrotation Yrotation
                  JOINT LeftHand
                  {
                    OFFSET 0 16.133 0
                    CHANNELS 3 Zrotation Xrotation Yrotation
                    End Site
                    {
                      OFFSET 0 0 0
                    }
                  }
                }
              }
            }
          }
        }
      }
    }
  }
  JOINT RightUpLeg
  {
    OFFSET -7.35773 -1.34921 -1.13181
    CHANNELS 3 Zrotation Xrotation Yrotation
    JOINT RightUpLegRoll
    {
      OFFSET 0 18.9168 0
      CHANNELS 3 Zrotation Xrotation Yrotation
      JOINT RightLeg
      {
        OFFSET 0 -23.4256 0
        CHANNELS 3 Zrotation Xrotation Yrotation
        JOINT RightLegRoll
        {
          OFFSET 0 23.5023 0
          CHANNELS 3 Zrotation Xrotation Yrotation
          JOINT RightFoot
          {
            OFFSET 0 19.5617 0
            CHANNELS 3 Zrotation Xrotation Yrotation
            JOINT RightToeBase
            {
              OFFSET 0 16.3526 0
              CHANNELS 3 Zrotation Xrotation Yrotation
              End Site
              {
                OFFSET 0.00693125 7.91944 -0.912837
              }
            }
          }
        }
      }
    }
  }
  JOINT LeftUpLeg
  {
    OFFSET 7.35773 -1.34921 -1.13181
    CHANNELS 3 Zrotation Xrotation Yrotation
    JOINT LeftUpLegRoll
    {
      OFFSET 0 18.9169 0
      CHANNELS 3 Zrotation Xrotation Yrotation
      JOINT LeftLeg
      {
        OFFSET 0 23.4255 0
        CHANNELS 3 Zrotation Xrotation Yrotation
        JOINT LeftLegRoll
        {
          OFFSET 0 23.7195 0
          CHANNELS 3 Zrotation Xrotation Yrotation
          JOINT LeftFoot
          {
            OFFSET 0 19.3444 0
            CHANNELS 3 Zrotation Xrotation Yrotation
            JOINT LeftToeBase
            {
              OFFSET 0 16.3526 0
              CHANNELS 3 Zrotation Xrotation Yrotation
              End Site
              {
                OFFSET -0.0310629 7.91944 -0.912837
              }
            }
          }
        }
      }
    }
  }
}
MOTION
Frames: 13
Frame Time: 0.00208333
39.1256 98.8436 2.46596 0.455021 -0.878324 -1.4373 -0.0572482 -1.82714 0.0941158 -0.118597 0.342329 0.203021 -0.119909 1.9874 0.205048 3.95439 34.6123 -2.43861 -4.66479 -18.1325 -1.85823 33.7577 -11.4533 -7.54864 11.9596 48.6575 90.0274 -3.00996e-006 1.02957e-006 -1.9691e-005 -163.459 72.6215 175.631 -5.56181e-006 -1.98881e-006 -3.00468 8.03 -4.95137 0.697657 -66.3066 0.21636 0.798144 -100.389 13.3666 -15.4491 9.23982e-006 1.56959e-006 1.97977e-006 -10.0721 5.71644 1.08595 3.09634e-005 -5.16415e-006 3 -8.02902 -4.95146 -0.697684 175.879 2.45933 0.759314 180 7.01558e-015 178.972 176.327 6.28172 179.715 4.46511e-006 -1.60841e-006 0.0693272 -18.4805 67.7781 19.3604 8.13649 25.2326 -3.48773 -176.017 1.22938 0.867137 4.54188e-006 -4.6773e-006 -1.11549 -3.91296 -9.23028 0.351341 2.20527e-006 -3.53308e-006 -0.118914 18.2808 67.4109 -19.0544 -8.13649 25.2327 3.48774 
39.134 98.8371 2.42601 0.454533 -0.875741 -1.43789 -0.0574324 -1.82862 0.0934727 -0.11892 0.340946 0.201426 -0.120517 1.98602 0.203465 3.91311 34.6191 -2.41838 -4.63019 -18.1409 -1.84772 33.732 -11.4465 -7.54245 12.0186 48.7006 89.9102 -3.00996e-006 1.02957e-006 -1.9691e-005 -163.934 72.297 176.139 -5.56181e-006 -1.98881e-006 -3.00468 8.03 -4.95137 0.697657 -66.328 0.221375 0.798059 -100.388 13.352 -15.4346 9.23982e-006 1.56959e-006 1.97977e-006 -10.0887 5.72133 1.08662 3.09634e-005 -5.16415e-006 3 -8.02902 -4.95146 -0.697684 175.881 2.45966 0.758995 180 7.01558e-015 178.972 176.326 6.27377 179.715 4.46511e-006 -1.60841e-006 0.069254 -18.4756 67.7723 19.3553 8.13649 25.2326 -3.48773 -176.015 1.23365 0.86699 4.54188e-006 -4.6773e-006 -1.11547 -3.91273 -9.23248 0.351217 2.20527e-006 -3.53308e-006 -0.118964 18.284 67.415 -19.0579 -8.13649 25.2327 3.48774 
39.1258 98.8311 2.43235 0.453908 -0.873384 -1.43843 -0.0576113 -1.82998 0.092852 -0.119222 0.339666 0.19986 -0.121077 1.98474 0.20191 3.87321 34.6252 -2.39889 -4.59753 -18.148 -1.8378 33.7087 -11.4394 -7.53586 12.0765 48.7407 89.7953 -3.00996e-006 1.02957e-006 -1.9691e-005 -164.375 71.9821 176.612 -5.56181e-006 -1.98881e-006 -3.00468 8.03 -4.95137 0.697657 -66.3482 0.225949 0.798058 -100.389 13.3382 -15.4205 9.23982e-006 1.56959e-006 1.97977e-006 -10.1046 5.7253 1.08719 3.09634e-005 -5.16415e-006 3 -8.02902 -4.95146 -0.697684 175.883 2.45981 0.758584 180 7.01558e-015 178.972 176.324 6.26599 179.715 4.46511e-006 -1.60841e-006 0.0691614 -18.4708 67.7666 19.3502 8.13649 25.2326 -3.48773 -176.013 1.23735 0.866874 4.54188e-006 -4.6773e-006 -1.11545 -3.91242 -9.23408 0.351131 2.20527e-006 -3.53308e-006 -0.119016 18.2872 67.419 -19.0614 -8.13649 25.2327 3.48774 
39.1212 98.8337 2.45046 0.453129 -0.871291 -1.43896 -0.0577838 -1.8312 0.0922585 -0.119502 0.338507 0.198335 -0.121582 1.98358 0.200395 3.83503 34.6305 -2.3803 -4.56717 -18.1536 -1.82857 33.688 -11.4319 -7.52881 12.1322 48.7777 89.6838 -3.00996e-006 1.02957e-006 -1.9691e-005 -164.783 71.6774 177.051 -5.56181e-006 -1.98881e-006 -3.00468 8.03 -4.95137 0.697657 -66.3669 0.229964 0.798177 -100.391 13.3251 -15.4069 9.23982e-006 1.56959e-006 1.97977e-006 -10.1195 5.72823 1.08765 3.09634e-005 -5.16415e-006 3 -8.02902 -4.95146 -0.697684 175.885 2.45976 0.758045 180 7.01558e-015 178.972 176.322 6.25845 179.715 4.46511e-006 -1.60841e-006 0.0690477 -18.4662 67.761 19.3452 8.13649 25.2326 -3.48773 -176.011 1.24039 0.866789 4.54188e-006 -4.6773e-006 -1.11543 -3.91203 -9.235 0.35109 2.20527e-006 -3.53308e-006 -0.119068 18.2904 67.4229 -19.0648 -8.13649 25.2327 3.48774 
39.1237 98.8368 2.44172 0.452176 -0.869498 -1.43953 -0.0579491 -1.83223 0.091697 -0.119764 0.337488 0.196864 -0.122027 1.98256 0.198933 3.79889 34.6347 -2.36276 -4.53948 -18.1575 -1.82014 33.6703 -11.424 -7.52127 12.1846 48.8112 89.5768 -3.00996e-006 1.02957e-006 -1.9691e-005 -165.159 71.3838 177.458 -5.56181e-006 -1.98881e-006 -3.00468 8.03 -4.95137 0.697657 -66.384 0.233303 0.798452 -100.394 13.3131 -15.3938 9.23982e-006 1.56959e-006 1.97977e-006 -10.1334 5.72999 1.08798 3.09634e-005 -5.16415e-006 3 -8.02902 -4.95146 -0.697684 175.887 2.45951 0.757346 180 7.01558e-015 178.973 176.321 6.25124 179.715 4.46511e-006 -1.60841e-006 0.0689109 -18.4617 67.7557 19.3405 8.13649 25.2326 -3.48773 -176.008 1.2427 0.866738 4.54188e-006 -4.6773e-006 -1.11541 -3.91153 -9.23514 0.3511 2.20527e-006 -3.53308e-006 -0.119122 18.2934 67.4268 -19.0681 -8.13649 25.2327 3.48774 
39.1242 98.835 2.43468 0.451028 -0.868042 -1.44017 -0.0581063 -1.83304 0.0911723 -0.12001 0.336628 0.195458 -0.122405 1.9817 0.197534 3.76514 34.6378 -2.34644 -4.51484 -18.1594 -1.81261 33.6558 -11.4156 -7.5132 12.2327 48.841 89.4758 -3.00996e-006 1.02957e-006 -1.9691e-005 -165.505 71.102 177.833 -5.56181e-006 -1.98881e-006 -3.00468 8.03 -4.95137 0.697657 -66.3993 0.235849 0.798918 -100.4 13.3023 -15.3814 9.23982e-006 1.56959e-006 1.97977e-006 -10.1461 5.73046 1.08817 3.09634e-005 -5.16415e-006 3 -8.02902 -4.95146 -0.697684 175.89 2.45905 0.756452 180 7.01558e-015 178.973 176.32 6.24438 179.715 4.46511e-006 -1.60841e-006 0.0687489 -18.4574 67.7505 19.3359 8.13649 25.2326 -3.48773 -176.006 1.24418 0.86672 4.54188e-006 -4.6773e-006 -1.1154 -3.91093 -9.23442 0.351167 2.20527e-006 -3.53308e-006 -0.119177 18.2963 67.4304 -19.0713 -8.13649 25.2327 3.48774 
39.1197 98.834 2.43222 0.449668 -0.867026 -1.44091 -0.0582609 -1.83367 0.0906827 -0.12025 0.335915 0.194108 -0.122736 1.98098 0.19619 3.73092 34.6423 -2.32981 -4.4896 -18.1621 -1.80483 33.6448 -11.4065 -7.50436 12.2764 48.8671 89.3808 -3.00996e-006 1.02957e-006 -1.9691e-005 -165.823 70.8319 178.18 -5.56181e-006 -1.98881e-006 -3.00468 8.03 -4.95137 0.697657 -66.4129 0.237865 0.799455 -100.407 13.2922 -15.3697 9.23982e-006 1.56959e-006 1.97977e-006 -10.1576 5.72967 1.08824 3.09634e-005 -5.16415e-006 3 -8.02902 -4.95146 -0.697684 175.893 2.45836 0.755422 180 7.01558e-015 178.973 176.319 6.23807 179.715 4.46511e-006 -1.60841e-006 0.0685562 -18.4533 67.7456 19.3316 8.13649 25.2326 -3.48773 -176.004 1.24454 0.866684 4.54188e-006 -4.6773e-006 -1.11538 -3.91026 -9.23255 0.351304 2.20527e-006 -3.53308e-006 -0.119233 18.2991 67.4339 -19.0744 -8.13649 25.2327 3.48774 
39.1153 98.8368 2.44329 0.448101 -0.866479 -1.44172 -0.058418 -1.83418 0.0902214 -0.120489 0.335318 0.19279 -0.123041 1.98039 0.194878 3.69378 34.6502 -2.31157 -4.46066 -18.1677 -1.79586 33.6375 -11.3966 -7.49463 12.3167 48.8898 89.2907 -3.00996e-006 1.02957e-006 -1.9691e-005 -166.119 70.5726 178.503 -5.56181e-006 -1.98881e-006 -3.00468 8.03 -4.95137 0.697657 -66.4251 0.239678 0.799933 -100.416 13.2828 -15.3586 9.23982e-006 1.56959e-006 1.97977e-006 -10.1683 5.72779 1.08824 3.09634e-005 -5.16415e-006 3 -8.02902 -4.95146 -0.697684 175.896 2.45746 0.754339 180 7.01558e-015 178.973 176.318 6.23236 179.715 4.46511e-006 -1.60841e-006 0.0683309 -18.4494 67.741 19.3275 8.13649 25.2326 -3.48773 -176.001 1.24368 0.866591 4.54188e-006 -4.6773e-006 -1.11536 -3.90956 -9.22941 0.351514 2.20527e-006 -3.53308e-006 -0.119291 18.3017 67.4373 -19.0773 -8.13649 25.2327 3.48774 
39.1184 98.836 2.43971 0.446351 -0.866336 -1.44256 -0.0585763 -1.83456 0.0897856 -0.120723 0.334827 0.1915 -0.123316 1.9799 0.193594 3.6546 34.6606 -2.29222 -4.4292 -18.1754 -1.78608 33.6333 -11.386 -7.48414 12.3543 48.9093 89.2048 -3.00996e-006 1.02957e-006 -1.9691e-005 -166.393 70.324 178.802 -5.56181e-006 -1.98881e-006 -3.00468 8.03 -4.95137 0.697657 -66.4362 0.24127 0.800375 -100.426 13.2738 -15.3483 9.23982e-006 1.56959e-006 1.97977e-006 -10.1781 5.72491 1.08815 3.09634e-005 -5.16415e-006 3 -8.02902 -4.95146 -0.697684 175.899 2.45634 0.753205 180 7.01558e-015 178.973 176.317 6.22711 179.715 4.46511e-006 -1.60841e-006 0.0680765 -18.4457 67.7366 19.3236 8.13649 25.2326 -3.48773 -175.998 1.24178 0.866462 4.54188e-006 -4.6773e-006 -1.11534 -3.90883 -9.22518 0.351788 2.20527e-006 -3.53308e-006 -0.11935 18.3042 67.4405 -19.0801 -8.13649 25.2327 3.48774 
39.1143 98.835 2.44259 0.44444 -0.866529 -1.44339 -0.0587339 -1.83484 0.0893724 -0.120944 0.334433 0.190234 -0.123558 1.9795 0.192333 3.61428 34.6726 -2.27223 -4.39641 -18.1842 -1.77587 33.6319 -11.3749 -7.47301 12.3899 48.926 89.1221 -3.00996e-006 1.02957e-006 -1.9691e-005 -166.649 70.0857 179.08 -5.56181e-006 -1.98881e-006 -3.00468 8.03 -4.95137 0.697657 -66.4461 0.242622 0.800802 -100.437 13.2655 -15.3384 9.23982e-006 1.56959e-006 1.97977e-006 -10.1872 5.72109 1.08798 3.09634e-005 -5.16415e-006 3 -8.02902 -4.95146 -0.697684 175.902 2.45502 0.752022 180 7.01558e-015 178.973 176.316 6.22224 179.714 4.46511e-006 -1.60841e-006 0.0677969 -18.4422 67.7324 19.3198 8.13649 25.2326 -3.48773 -175.996 1.239 0.866315 4.54188e-006 -4.6773e-006 -1.11532 -3.90805 -9.22004 0.352116 2.20527e-006 -3.53308e-006 -0.119411 18.3067 67.4436 -19.0829 -8.13649 25.2327 3.48774 
39.1128 98.8369 2.44155 0.44239 -0.866989 -1.44417 -0.0588896 -1.83503 0.0889791 -0.121148 0.334128 0.188987 -0.123764 1.9792 0.19109 3.5737 34.6854 -2.25211 -4.36348 -18.1933 -1.7656 33.633 -11.3632 -7.46136 12.4244 48.9399 89.0416 -3.00996e-006 1.02957e-006 -1.9691e-005 -166.887 69.8576 179.338 -5.56181e-006 -1.98881e-006 -3.00468 8.03 -4.95137 0.697657 -66.4549 0.243714 0.801236 -100.449 13.2576 -15.3291 9.23982e-006 1.56959e-006 1.97977e-006 -10.1955 5.71644 1.08774 3.09634e-005 -5.16415e-006 3 -8.02902 -4.95146 -0.697684 175.906 2.4535 0.75079 180 7.01558e-015 178.973 176.315 6.21761 179.714 4.46511e-006 -1.60841e-006 0.0674957 -18.4388 67.7282 19.3162 8.13649 25.2326 -3.48773 -175.993 1.23555 0.866171 4.54188e-006 -4.6773e-006 -1.1153 -3.90722 -9.21417 0.352489 2.20527e-006 -3.53308e-006 -0.119474 18.3091 67.4467 -19.0856 -8.13649 25.2327 3.48774 
39.122 98.8332 2.42477 0.440223 -0.867649 -1.44487 -0.0590415 -1.83514 0.0886028 -0.121327 0.333902 0.187754 -0.123931 1.97897 0.189861 3.53377 34.6979 -2.23236 -4.33159 -18.2016 -1.75566 33.6362 -11.3513 -7.44932 12.4585 48.9513 88.9625 -3.00996e-006 1.02957e-006 -1.9691e-005 -167.109 69.6393 179.578 -5.56181e-006 -1.98881e-006 -3.00468 8.03 -4.95137 0.697657 -66.4628 0.244527 0.801699 -100.462 13.2504 -15.3202 9.23982e-006 1.56959e-006 1.97977e-006 -10.2032 5.71101 1.08742 3.09634e-005 -5.16415e-006 3 -8.02902 -4.95146 -0.697684 175.909 2.45181 0.749512 180 7.01558e-015 178.973 176.315 6.2131 179.714 4.46511e-006 -1.60841e-006 0.0671765 -18.4354 67.7242 19.3126 8.13649 25.2326 -3.48773 -175.99 1.23158 0.86605 4.54188e-006 -4.6773e-006 -1.11528 -3.90633 -9.20775 0.352895 2.20527e-006 -3.53308e-006 -0.119537 18.3115 67.4497 -19.0883 -8.13649 25.2327 3.48774 
39.1183 98.8325 2.42778 0.437961 -0.868442 -1.44544 -0.0591882 -1.83517 0.0882407 -0.121478 0.333747 0.186531 -0.124056 1.97882 0.188641 3.49538 34.7094 -2.21347 -4.30194 -18.2084 -1.74643 33.6411 -11.3391 -7.437 12.493 48.9605 88.8838 -3.00996e-006 1.02957e-006 -1.9691e-005 -167.316 69.4308 179.801 -5.56181e-006 -1.98881e-006 -3.00468 8.03 -4.95137 0.697657 -66.4698 0.245042 0.802213 -100.476 13.2437 -15.3115 9.23982e-006 1.56959e-006 1.97977e-006 -10.2104 5.70489 1.08702 3.09634e-005 -5.16415e-006 3 -8.02902 -4.95146 -0.697684 175.913 2.44993 0.748187 180 7.01558e-015 178.973 176.314 6.20863 179.714 4.46511e-006 -1.60841e-006 0.0668431 -18.432 67.7201 19.3091 8.13649 25.2326 -3.48773 -175.987 1.22728 0.865972 4.54188e-006 -4.6773e-006 -1.11526 -3.90537 -9.20097 0.353326 2.20527e-006 -3.53308e-006 -0.119603 18.3139 67.4527 -19.0911 -8.13649 25.2327 3.48774 
